<svg xmlns="http://www.w3.org/2000/svg" class="ionicon" viewBox="0 0 512 512" width="24" height="24">
<path d="M344 144c-3.92 52.87-44 96-88 96s-84.15-43.12-88-96c-4-55 35-96 88-96s92 42 88 96z" fill="none" stroke="currentColor" stroke-linecap="round" stroke-linejoin="round" stroke-width="32"/><path d="M256 304c-87 0-175.3 48-191.64 138.6C62.39 453.52 68.57 464 80 464h352c11.44 0 17.62-10.48 15.65-21.4C431.3 352 343 304 256 304z" fill="none" stroke="currentColor" stroke-miterlimit="10" stroke-width="32"/>
<rect width="95%" height="95%" transform="matrix(0.50 0 0 0.50 220 270)" fill="white" />
<path transform="matrix(0.50 0 0 0.50 220 270)" d="M480 128a64 64 0 00-64-64h-16V48.45c0-8.61-6.62-16-15.23-16.43A16 16 0 00368 48v16H144V48.45c0-8.61-6.62-16-15.23-16.43A16 16 0 00112 48v16H96a64 64 0 00-64 64v12a4 4 0 004 4h440a4 4 0 004-4zM32 416a64 64 0 0064 64h320a64 64 0 0064-64V179a3 3 0 00-3-3H35a3 3 0 00-3 3zm344-208a24 24 0 11-24 24 24 24 0 0124-24zm0 80a24 24 0 11-24 24 24 24 0 0124-24zm-80-80a24 24 0 11-24 24 24 24 0 0124-24zm0 80a24 24 0 11-24 24 24 24 0 0124-24zm0 80a24 24 0 11-24 24 24 24 0 0124-24zm-80-80a24 24 0 11-24 24 24 24 0 0124-24zm0 80a24 24 0 11-24 24 24 24 0 0124-24zm-80-80a24 24 0 11-24 24 24 24 0 0124-24zm0 80a24 24 0 11-24 24 24 24 0 0124-24z"/>
</svg>