<?xml version="1.0" encoding="utf-8"?>
<!DOCTYPE svg PUBLIC "-//W3C//DTD SVG 1.1//EN" "http://www.w3.org/Graphics/SVG/1.1/DTD/svg11.dtd">
<svg version="1.1" xmlns="http://www.w3.org/2000/svg" xmlns:xlink="http://www.w3.org/1999/xlink" x="0px" y="0px" viewBox="0 0 1000 1000" enable-background="new 0 0 1000 1000" xml:space="preserve">
  <g className="real-path">
    <g>
      <g>
        <path d="M261.6,449.7c-9.8-7.7-21.9-12.1-34.4-12.1c-30.8,0-55.8,25.1-55.8,55.9c0,17.8,8.6,34.3,22.6,44.7C205.6,505,229.2,474.8,261.6,449.7z"/><path d="M739.3,311.9c23,0,41.7-18.7,41.7-41.7s-18.7-41.7-41.7-41.7c-23,0-41.7,18.7-41.7,41.7S716.3,311.9,739.3,311.9z"/><path d="M500,10C229.4,10,10,229.4,10,500c0,270.6,219.4,490,490,490s490-219.4,490-490C990,229.4,770.6,10,500,10z M809.3,561.7c1.3,7.7,2.2,15.5,2.2,23.5c0,114.7-140.4,208-312.9,208c-172.5,0-312.9-93.3-312.9-208c0-8.5,1-16.7,2.5-24.9c-23.5-13.8-38.4-39.1-38.4-66.8c0-42.8,34.8-77.6,77.5-77.6c19.5,0,38.1,7.8,52.4,20.9c55.2-36,130.3-58.4,213.2-59.4l48.3-152.7c1.7-5.4,7.4-8.6,12.9-7.3l126.4,29.7c9.2-23.6,32.1-40.4,59-40.4c35,0,63.4,28.5,63.4,63.4c0,35-28.5,63.4-63.4,63.4c-35,0-63.4-28.5-63.4-63.4c0-0.6,0.1-1.1,0.2-1.7l-117.2-27.6l-43.3,136.9c79.3,2.8,150.9,25.1,203.8,60.2c14.4-13.9,33.2-22,53.5-22c42.8,0,77.6,34.8,77.6,77.6C850.3,522.5,834.4,548.3,809.3,561.7z"/><path d="M347.5,546.8c0-25.5,20.7-46.2,46.2-46.2c25.5,0,46.2,20.7,46.2,46.2c0,25.5-20.7,46.2-46.2,46.2C368.2,592.9,347.5,572.2,347.5,546.8z M612,683.6c-23.3,23.3-59.8,34.6-111.6,34.6c-0.1,0-0.2-0.1-0.4-0.1s-0.2,0.1-0.4,0.1c-51.9,0-88.4-11.3-111.6-34.6c-4.2-4.2-4.2-11.1,0-15.4c4.2-4.2,11.1-4.2,15.4,0c19,19,50.5,28.2,96.3,28.2c0.1,0,0.2,0.1,0.4,0.1s0.2-0.1,0.4-0.1c45.8,0,77.3-9.2,96.3-28.2c4.3-4.2,11.1-4.2,15.4,0C616.3,672.5,616.3,679.4,612,683.6z M606.5,592.9c-25.4,0-46.2-20.7-46.2-46.2c0-25.5,20.7-46.2,46.2-46.2s46.2,20.7,46.2,46.2C652.7,572.2,632,592.9,606.5,592.9z"/><path d="M772.7,437.7c-13.3,0-25.8,4.8-35.8,13.2c32.3,25.2,55.5,55.6,66.8,89c15.4-10.2,24.9-27.3,24.9-46.3C828.6,462.7,803.6,437.7,772.7,437.7z"/>
      </g>
    </g>
    <g></g>
    <g></g>
    <g></g>
    <g></g>
    <g></g>
    <g></g>
    <g></g>
    <g></g>
    <g></g>
    <g></g>
    <g></g>
    <g></g>
    <g></g>
    <g></g>
    <g></g>
  </g>
</svg>