<svg
    id="slot-machine"
    xmlns="http://www.w3.org/2000/svg"
    xmlns:xlink="http://www.w3.org/1999/xlink"
    viewBox="0 0 496 496"
    shape-rendering="geometricPrecision"
    text-rendering="geometricPrecision"
>
    <rect
    id="slot-machine-rect1"
    width="496"
    height="200"
    rx="0"
    ry="0"
    transform="matrix(1 0 0 1 0 288)"
    fill="rgb(0,154,175)"
    stroke="none"
    stroke-width="1"
    />
    <g id="slot-machine-g1">
    <polyline
        id="slot-machine-polyline1"
        points="0,288 496,288 496,488"
        fill="rgb(0,104,132)"
        stroke="none"
        stroke-width="1"
    />
    <path
        id="slot-machine-path1"
        d="M416,123.200000C416,168.800000,357.600000,208,312.800000,208L183.200000,208C138.400000,208,80,168.800000,80,123.200000L80,87.200000C80,41.600000,138.400000,8,183.200000,8L312,8C357.600000,8,416,41.600000,416,87.200000L416,123.200000Z"
        fill="rgb(0,104,132)"
        stroke="none"
        stroke-width="1"
    />
    </g>
    <path
    id="slot-machine-path2"
    d="M496,296.800000C496,309.600000,484.800000,320,472,320L24,320C11.200000,320,0,309.600000,0,296.800000L0,86.400000C0,73.600000,11.200000,64,24,64L472,64C484.800000,64,496,73.600000,496,86.400000L496,296.800000Z"
    fill="rgb(7,190,214)"
    stroke="none"
    stroke-width="1"
    />
    <path
    id="slot-machine-path3"
    d="M0,86.400000C0,73.600000,11.200000,64,24,64L472,64C484.800000,64,496,73.600000,496,86.400000L496,296.800000C496,309.600000,484.800000,320,472,320"
    fill="rgb(0,154,175)"
    stroke="none"
    stroke-width="1"
    />
    <path
    id="slot-machine-path4"
    d="M456,260.800000C456,269.600000,452,272,444,272L52,272C44,272,40,268.800000,40,260.800000L40,123.200000C40,115.200000,44,104,52,104L444,104C452.800000,104,456,114.400000,456,123.200000L456,260.800000Z"
    fill="rgb(214,213,204)"
    stroke="none"
    stroke-width="1"
    />
    <g id="slot-machine-g2">
    <path
        id="slot-machine-path5"
        d="M95.200000,260.800000C94.400000,260.800000,93.600000,260.800000,92.800000,260.800000C91.200000,260.800000,90.400000,260,88.800000,260C87.200000,259.200000,86.400000,258.400000,85.600000,257.600000C84.800000,256.800000,84,255.200000,84,252.800000L84,252L84,251.200000C84.800000,245.600000,85.600000,240,88,234.400000C89.600000,228.800000,92,223.200000,95.200000,216.800000C98.400000,210.400000,100.800000,204.800000,104.800000,199.200000C108,192.800000,112,187.200000,116,180.800000C112.800000,180,110.400000,180,108.800000,179.200000C107.200000,178.400000,105.600000,178.400000,104,177.600000C101.600000,176,100.800000,176,99.200000,176C98.400000,176,96.800000,176,95.200000,176C93.600000,176,92,176,90.400000,176C88.800000,176,88,176,87.200000,176.800000C86.400000,177.600000,85.600000,177.600000,84.800000,178.400000C84,179.200000,83.200000,180,82.400000,181.600000C80.800000,184.800000,79.200000,186.400000,78.400000,188C77.600000,189.600000,76,190.400000,75.200000,190.400000C74.400000,190.400000,73.600000,190.400000,72.800000,189.600000C72,188.800000,72,188,72,186.400000C72,185.600000,72,184.800000,72,184.800000C72,184,72,183.200000,72,182.400000C72.800000,176.800000,73.600000,172.800000,75.200000,169.600000C76.800000,166.400000,78.400000,164,80,161.600000C81.600000,160,84,158.400000,86.400000,157.600000C88.800000,156.800000,90.400000,156,92.800000,156C95.200000,156,97.600000,156,99.200000,156.800000C101.600000,157.600000,104,157.600000,105.600000,158.400000C108,159.200000,110.400000,160,112.800000,160C115.200000,160.800000,117.600000,160.800000,120,160.800000C121.600000,160.800000,122.400000,160.800000,123.200000,160.800000C124,160.800000,124.800000,160.800000,125.600000,160.800000C128,160.800000,129.600000,160.800000,131.200000,160C132.800000,160,133.600000,160,134.400000,159.200000C135.200000,159.200000,136,159.200000,136,158.400000L136.800000,158.400000C139.200000,158.400000,140.800000,159.200000,141.600000,160C142.400000,161.600000,143.200000,163.200000,143.200000,165.600000C143.200000,167.200000,143.200000,168.800000,143.200000,171.200000C143.200000,171.200000,142.400000,172,141.600000,172.800000C140.800000,173.600000,140,174.400000,138.400000,175.200000C137.600000,176,136,176.800000,135.200000,177.600000C134.400000,178.400000,132.800000,179.200000,132.800000,179.200000C129.600000,184.800000,126.400000,190.400000,124,196C121.600000,201.600000,119.200000,207.200000,117.600000,212.800000C116,218.400000,114.400000,224.800000,112.800000,230.400000C111.200000,236.800000,109.600000,243.200000,108,250.400000C108,252,107.200000,253.600000,105.600000,254.400000C104.800000,255.200000,103.200000,256,101.600000,256.800000C100,257.600000,98.400000,257.600000,96.800000,258.400000C97.600000,260.800000,96.800000,260.800000,95.200000,260.800000Z"
        fill="rgb(214,213,204)"
        stroke="none"
        stroke-width="1"
    />
    <path
        id="slot-machine-path6"
        d="M108.800000,189.600000C107.200000,192.800000,104.800000,195.200000,103.200000,198.400000C100,204.800000,96.800000,210.400000,93.600000,216C90.400000,221.600000,88.800000,228,86.400000,233.600000C84.800000,239.200000,83.200000,244.800000,82.400000,250.400000L82.400000,251.200000L82.400000,252C82.400000,254.400000,83.200000,256,84,256.800000C84.800000,257.600000,86.400000,259.200000,87.200000,259.200000C88.800000,260,89.600000,260,91.200000,260C92.800000,260,93.600000,260,93.600000,260C95.200000,260,96,260,97.600000,259.200000C99.200000,259.200000,100.800000,258.400000,102.400000,257.600000C104,256.800000,104.800000,256,106.400000,255.200000C107.200000,254.400000,108,252.800000,108.800000,251.200000C110.400000,244,112,237.600000,113.600000,231.200000C115.200000,224.800000,116.800000,219.200000,118.400000,213.600000C120,208,122.400000,202.400000,124.800000,196.800000C127.200000,191.200000,130.400000,185.600000,133.600000,180L134.400000,179.200000L108.800000,189.600000Z"
        fill="rgb(214,213,204)"
        stroke="none"
        stroke-width="1"
    />
    <path
        id="slot-machine-path7"
        d="M234.400000,260.800000C233.600000,260.800000,232.800000,260.800000,232,260.800000C230.400000,260.800000,229.600000,260,228,260C226.400000,259.200000,225.600000,258.400000,224.800000,257.600000C224,256.800000,223.200000,255.200000,223.200000,252.800000L223.200000,252L223.200000,251.200000C224,245.600000,224.800000,240,227.200000,234.400000C228.800000,228.800000,231.200000,223.200000,234.400000,216.800000C237.600000,210.400000,240,204.800000,244,199.200000C247.200000,192.800000,251.200000,187.200000,255.200000,180.800000C252,180,249.600000,180,248,179.200000C246.400000,178.400000,244.800000,178.400000,243.200000,177.600000C240.800000,176,239.200000,176,238.400000,176C237.600000,176,236,176,234.400000,176C232.800000,176,231.200000,176,229.600000,176C228,176,227.200000,176,226.400000,176.800000C225.600000,177.600000,224.800000,177.600000,224,178.400000C223.200000,179.200000,222.400000,180,221.600000,181.600000C220,184.800000,218.400000,186.400000,217.600000,188C216.800000,189.600000,215.200000,190.400000,214.400000,190.400000C213.600000,190.400000,212.800000,190.400000,212,189.600000C211.200000,188.800000,211.200000,188,211.200000,186.400000C211.200000,185.600000,211.200000,184.800000,211.200000,184.800000C211.200000,184,211.200000,183.200000,211.200000,182.400000C212,176.800000,212.800000,172.800000,214.400000,169.600000C216,166.400000,217.600000,164,219.200000,161.600000C220.800000,160,223.200000,158.400000,225.600000,157.600000C228,156.800000,229.600000,156,232,156C234.400000,156,236.800000,156,238.400000,156.800000C240.800000,157.600000,243.200000,157.600000,244.800000,158.400000C247.200000,159.200000,249.600000,160,252,160C254.400000,160.800000,256.800000,160.800000,259.200000,160.800000C260.800000,160.800000,261.600000,160.800000,262.400000,160.800000C263.200000,160.800000,264,160.800000,264.800000,160.800000C267.200000,160.800000,268.800000,160.800000,270.400000,160C272,160,272.800000,160,273.600000,159.200000C274.400000,159.200000,275.200000,159.200000,275.200000,158.400000L276,158.400000C278.400000,158.400000,280,159.200000,280.800000,160C281.600000,161.600000,282.400000,163.200000,282.400000,165.600000C282.400000,167.200000,282.400000,168.800000,282.400000,171.200000C282.400000,171.200000,281.600000,172,280.800000,172.800000C280,173.600000,279.200000,174.400000,277.600000,175.200000C276.800000,176,275.200000,176.800000,274.400000,177.600000C273.600000,178.400000,272,179.200000,272,179.200000C268.800000,184.800000,265.600000,190.400000,263.200000,196C260.800000,201.600000,258.400000,207.200000,256.800000,212.800000C255.200000,218.400000,253.600000,224.800000,252,230.400000C250.400000,236.800000,248.800000,243.200000,247.200000,250.400000C247.200000,252,246.400000,253.600000,244.800000,254.400000C244,255.200000,242.400000,256,240.800000,256.800000C239.200000,257.600000,237.600000,257.600000,236,258.400000C236.800000,260.800000,235.200000,260.800000,234.400000,260.800000Z"
        fill="rgb(214,213,204)"
        stroke="none"
        stroke-width="1"
    />
    <path
        id="slot-machine-path8"
        d="M248,189.600000C246.400000,192.800000,244,195.200000,242.400000,198.400000C239.200000,204.800000,236,210.400000,232.800000,216C229.600000,221.600000,228,228,225.600000,233.600000C224,239.200000,222.400000,244.800000,221.600000,250.400000L221.600000,251.200000L221.600000,252C221.600000,254.400000,222.400000,256,223.200000,256.800000C224,257.600000,225.600000,259.200000,226.400000,259.200000C228,260,228.800000,260,230.400000,260C232,260,232.800000,260,232.800000,260C234.400000,260,235.200000,260,236.800000,259.200000C238.400000,259.200000,240,258.400000,241.600000,257.600000C243.200000,256.800000,244,256,245.600000,255.200000C246.400000,254.400000,247.200000,252.800000,248,251.200000C249.600000,244,251.200000,237.600000,252.800000,231.200000C254.400000,224.800000,256,219.200000,257.600000,213.600000C259.200000,208,261.600000,202.400000,264,196.800000C266.400000,191.200000,269.600000,185.600000,272.800000,180L273.600000,179.200000L248,189.600000Z"
        fill="rgb(214,213,204)"
        stroke="none"
        stroke-width="1"
    />
    <path
        id="slot-machine-path9"
        d="M372.800000,260.800000C372,260.800000,371.200000,260.800000,370.400000,260.800000C369.600000,260.800000,368,260,366.400000,260C364.800000,259.200000,364,258.400000,363.200000,257.600000C362.400000,256.800000,361.600000,255.200000,361.600000,252.800000L361.600000,252L361.600000,251.200000C362.400000,245.600000,363.200000,240,365.600000,234.400000C367.200000,228.800000,369.600000,223.200000,372.800000,216.800000C376,210.400000,378.400000,204.800000,382.400000,199.200000C385.600000,192.800000,389.600000,187.200000,393.600000,180.800000C390.400000,180,388,180,386.400000,179.200000C384.800000,178.400000,383.200000,178.400000,381.600000,177.600000C380,176,378.400000,176,377.600000,176C376.800000,176,375.200000,176,373.600000,176C372,176,370.400000,176,368.800000,176C367.200000,176,366.400000,176,365.600000,176.800000C364.800000,177.600000,364,177.600000,363.200000,178.400000C362.400000,179.200000,361.600000,180,360.800000,181.600000C359.200000,184.800000,357.600000,186.400000,356.800000,188C356,189.600000,354.400000,190.400000,353.600000,190.400000C352.800000,190.400000,352,190.400000,351.200000,189.600000C350.400000,188.800000,350.400000,188,350.400000,186.400000C350.400000,185.600000,350.400000,184.800000,350.400000,184.800000C350.400000,184,350.400000,183.200000,350.400000,182.400000C351.200000,176.800000,352,172.800000,353.600000,169.600000C355.200000,166.400000,356.800000,164,358.400000,161.600000C360,160,362.400000,158.400000,364.800000,157.600000C367.200000,156.800000,368.800000,156,371.200000,156C373.600000,156,376,156,377.600000,156.800000C380,157.600000,382.400000,157.600000,384,158.400000C386.400000,159.200000,388.800000,160,391.200000,160C393.600000,160.800000,396,160.800000,398.400000,160.800000C400,160.800000,400.800000,160.800000,401.600000,160.800000C402.400000,160.800000,403.200000,160.800000,404,160.800000C406.400000,160.800000,408,160.800000,409.600000,160C411.200000,160,412,160,412.800000,159.200000C413.600000,159.200000,414.400000,159.200000,414.400000,158.400000C414.400000,157.600000,415.200000,158.400000,415.200000,158.400000C417.600000,158.400000,419.200000,159.200000,420,160C420.800000,161.600000,421.600000,163.200000,421.600000,165.600000C421.600000,167.200000,421.600000,168.800000,421.600000,171.200000C421.600000,171.200000,420.800000,172,420,172.800000C419.200000,173.600000,418.400000,174.400000,416.800000,175.200000C416,176,414.400000,176.800000,413.600000,177.600000C412.800000,178.400000,411.200000,179.200000,411.200000,179.200000C408,184.800000,404.800000,190.400000,402.400000,196C400,201.600000,397.600000,207.200000,396,212.800000C394.400000,218.400000,392.800000,224.800000,391.200000,230.400000C389.600000,236.800000,388,243.200000,386.400000,250.400000C386.400000,252,385.600000,253.600000,384,254.400000C383.200000,255.200000,381.600000,256,380,256.800000C378.400000,257.600000,376.800000,257.600000,375.200000,258.400000C376,260.800000,374.400000,260.800000,372.800000,260.800000Z"
        fill="rgb(214,213,204)"
        stroke="none"
        stroke-width="1"
    />
    <path
        id="slot-machine-path10"
        d="M386.400000,189.600000C384.800000,192.800000,382.400000,195.200000,380.800000,198.400000C377.600000,204.800000,374.400000,210.400000,371.200000,216C368,221.600000,366.400000,228,364,233.600000C362.400000,239.200000,360.800000,244.800000,360,250.400000L360,251.200000L360,252C360,254.400000,360.800000,256,361.600000,256.800000C362.400000,257.600000,364,259.200000,364.800000,259.200000C366.400000,260,367.200000,260,368.800000,260C370.400000,260,371.200000,260,371.200000,260C372.800000,260,373.600000,260,375.200000,259.200000C376.800000,259.200000,378.400000,258.400000,380,257.600000C381.600000,256.800000,382.400000,256,384,255.200000C384.800000,254.400000,385.600000,252.800000,386.400000,251.200000C388,244,389.600000,237.600000,391.200000,231.200000C392.800000,224.800000,394.400000,219.200000,396,213.600000C397.600000,208,400,202.400000,402.400000,196.800000C404.800000,191.200000,408,185.600000,411.200000,180L412,179.200000L386.400000,189.600000Z"
        fill="rgb(214,213,204)"
        stroke="none"
        stroke-width="1"
    />
    </g>
    <path
    id="slot-machine-path11"
    d="M95.200000,246.400000C94.400000,246.400000,93.600000,246.400000,92.800000,246.400000C91.200000,246.400000,90.400000,245.600000,88.800000,245.600000C87.200000,244.800000,86.400000,244,85.600000,243.200000C84.800000,242.400000,84,240.800000,84,238.400000L84,237.600000L84,236.800000C84.800000,231.200000,85.600000,225.600000,88,220C89.600000,214.400000,92,208.800000,95.200000,202.400000C98.400000,196,100.800000,190.400000,104.800000,184.800000C108,178.400000,112,172.800000,116,166.400000C112.800000,165.600000,110.400000,165.600000,108.800000,164.800000C107.200000,164,105.600000,164,104,163.200000C102.400000,162.400000,101.600000,162.400000,100,162.400000C99.200000,162.400000,97.600000,162.400000,96,162.400000C94.400000,162.400000,92.800000,162.400000,91.200000,162.400000C89.600000,162.400000,88.800000,162.400000,88,163.200000C87.200000,164,86.400000,164,85.600000,164.800000C84.800000,165.600000,84,166.400000,83.200000,168C81.600000,171.200000,80,172.800000,79.200000,174.400000C78.400000,176,76.800000,176.800000,76,176.800000C75.200000,176.800000,74.400000,176.800000,73.600000,176C72.800000,175.200000,72.800000,174.400000,72.800000,172.800000C72.800000,172,72.800000,171.200000,72.800000,171.200000C72.800000,170.400000,72.800000,169.600000,72.800000,168.800000C73.600000,163.200000,74.400000,159.200000,76,156C77.600000,152.800000,79.200000,150.400000,80.800000,148C82.400000,146.400000,84.800000,144.800000,87.200000,144C89.600000,143.200000,91.200000,142.400000,93.600000,142.400000C96,142.400000,98.400000,142.400000,100,143.200000C102.400000,144,104.800000,144,106.400000,144.800000C108.800000,145.600000,111.200000,146.400000,113.600000,146.400000C116,147.200000,118.400000,147.200000,120.800000,147.200000C122.400000,147.200000,123.200000,147.200000,124,147.200000C124.800000,147.200000,125.600000,147.200000,126.400000,147.200000C128.800000,147.200000,130.400000,147.200000,132,146.400000C133.600000,146.400000,134.400000,146.400000,135.200000,145.600000C136,145.600000,136.800000,145.600000,136.800000,144.800000L137.600000,144.800000C140,144.800000,141.600000,145.600000,142.400000,146.400000C143.200000,148,144,149.600000,144,152C144,153.600000,144,155.200000,144,157.600000C144,157.600000,143.200000,158.400000,142.400000,159.200000C141.600000,160,140.800000,160.800000,139.200000,161.600000C138.400000,162.400000,136.800000,163.200000,136,164C135.200000,164.800000,133.600000,165.600000,133.600000,165.600000C130.400000,171.200000,127.200000,176.800000,124.800000,182.400000C122.400000,188,120,193.600000,118.400000,199.200000C116.800000,204.800000,115.200000,211.200000,113.600000,216.800000C112,223.200000,110.400000,229.600000,108.800000,236.800000C108.800000,238.400000,108,240,106.400000,240.800000C105.600000,241.600000,104,242.400000,102.400000,243.200000C100.800000,244,99.200000,244,97.600000,244.800000C97.600000,245.600000,96.800000,246.400000,95.200000,246.400000Z"
    fill="rgb(237,110,15)"
    stroke="none"
    stroke-width="1"
    />
    <path
    id="slot-machine-path12"
    d="M108.800000,175.200000C107.200000,178.400000,104.800000,180.800000,103.200000,184C100,190.400000,96.800000,196,93.600000,201.600000C90.400000,207.200000,88.800000,213.600000,86.400000,219.200000C84.800000,224.800000,83.200000,230.400000,82.400000,236L82.400000,236.800000L82.400000,237.600000C82.400000,240,83.200000,241.600000,84,242.400000C84.800000,243.200000,86.400000,244.800000,87.200000,244.800000C88.800000,245.600000,89.600000,245.600000,91.200000,245.600000C92.800000,245.600000,93.600000,245.600000,93.600000,245.600000C95.200000,245.600000,96,245.600000,97.600000,244.800000C99.200000,244.800000,100.800000,244,102.400000,243.200000C104,242.400000,104.800000,241.600000,106.400000,240.800000C107.200000,240,108,238.400000,108.800000,236.800000C110.400000,229.600000,112,223.200000,113.600000,216.800000C115.200000,210.400000,116.800000,204.800000,118.400000,199.200000C120,193.600000,122.400000,188,124.800000,182.400000C127.200000,176.800000,130.400000,171.200000,133.600000,165.600000L134.400000,164.800000L108.800000,175.200000Z"
    fill="rgb(198,82,2)"
    stroke="none"
    stroke-width="1"
    />
    <path
    id="slot-machine-path13"
    d="M234.400000,246.400000C233.600000,246.400000,232.800000,246.400000,232,246.400000C230.400000,246.400000,229.600000,245.600000,228,245.600000C226.400000,244.800000,225.600000,244,224.800000,243.200000C224,242.400000,223.200000,240.800000,223.200000,238.400000L223.200000,237.600000L223.200000,236.800000C224,231.200000,224.800000,225.600000,227.200000,220C228.800000,214.400000,231.200000,208.800000,234.400000,202.400000C237.600000,196,240,190.400000,244,184.800000C247.200000,178.400000,251.200000,172.800000,255.200000,166.400000C252,165.600000,249.600000,165.600000,248,164.800000C246.400000,164,244.800000,164,243.200000,163.200000C241.600000,162.400000,240.800000,162.400000,239.200000,162.400000C238.400000,162.400000,236.800000,162.400000,235.200000,162.400000C233.600000,162.400000,232,162.400000,230.400000,162.400000C228.800000,162.400000,228,162.400000,227.200000,163.200000C226.400000,164,225.600000,164,224.800000,164.800000C224,165.600000,223.200000,166.400000,222.400000,168C220.800000,171.200000,219.200000,172.800000,218.400000,174.400000C216.800000,175.200000,216,176,215.200000,176C214.400000,176,213.600000,176,212.800000,175.200000C212,174.400000,212,173.600000,212,172C212,171.200000,212,170.400000,212,170.400000C212,169.600000,212,168.800000,212,168C212.800000,162.400000,213.600000,158.400000,215.200000,155.200000C216.800000,152,218.400000,149.600000,220,147.200000C221.600000,145.600000,224,144,226.400000,143.200000C228.800000,142.400000,230.400000,141.600000,232.800000,141.600000C235.200000,141.600000,237.600000,141.600000,239.200000,142.400000C241.600000,143.200000,244,143.200000,245.600000,144C248,144.800000,250.400000,145.600000,252.800000,145.600000C255.200000,146.400000,257.600000,146.400000,260,146.400000C261.600000,146.400000,262.400000,146.400000,263.200000,146.400000C264,146.400000,264.800000,146.400000,265.600000,146.400000C268,146.400000,269.600000,146.400000,271.200000,145.600000C272.800000,145.600000,273.600000,145.600000,274.400000,144.800000C275.200000,144.800000,276,144.800000,276,144L276.800000,144C279.200000,144,280.800000,144.800000,281.600000,145.600000C282.400000,147.200000,283.200000,148.800000,283.200000,151.200000C283.200000,152.800000,283.200000,154.400000,283.200000,156.800000C283.200000,156.800000,282.400000,157.600000,281.600000,158.400000C280.800000,159.200000,280,160,278.400000,160.800000C277.600000,161.600000,276,162.400000,275.200000,163.200000C274.400000,164,272.800000,164.800000,272.800000,164.800000C269.600000,170.400000,266.400000,176,264,181.600000C261.600000,187.200000,259.200000,192.800000,257.600000,198.400000C256,204,254.400000,210.400000,252.800000,216C251.200000,222.400000,249.600000,228.800000,248,236C248,237.600000,247.200000,239.200000,245.600000,240C244.800000,240.800000,243.200000,241.600000,241.600000,242.400000C240,243.200000,238.400000,243.200000,236.800000,244C236.800000,245.600000,235.200000,246.400000,234.400000,246.400000Z"
    fill="rgb(237,110,15)"
    stroke="none"
    stroke-width="1"
    />
    <path
    id="slot-machine-path14"
    d="M248,175.200000C246.400000,178.400000,244,180.800000,242.400000,184C239.200000,190.400000,236,196,232.800000,201.600000C229.600000,207.200000,228,213.600000,225.600000,219.200000C224,224.800000,222.400000,230.400000,221.600000,236L221.600000,236.800000L221.600000,237.600000C221.600000,240,222.400000,241.600000,223.200000,242.400000C224,243.200000,225.600000,244.800000,226.400000,244.800000C228,245.600000,228.800000,245.600000,230.400000,245.600000C232,245.600000,232.800000,245.600000,232.800000,245.600000C234.400000,245.600000,235.200000,245.600000,236.800000,244.800000C238.400000,244.800000,240,244,241.600000,243.200000C243.200000,242.400000,244,241.600000,245.600000,240.800000C246.400000,240,247.200000,238.400000,248,236.800000C249.600000,229.600000,251.200000,223.200000,252.800000,216.800000C254.400000,210.400000,256,204.800000,257.600000,199.200000C259.200000,193.600000,261.600000,188,264,182.400000C266.400000,176.800000,269.600000,171.200000,272.800000,165.600000L273.600000,164.800000L248,175.200000Z"
    fill="rgb(198,82,2)"
    stroke="none"
    stroke-width="1"
    />
    <path
    id="slot-machine-path15"
    d="M372.800000,246.400000C372,246.400000,371.200000,246.400000,370.400000,246.400000C369.600000,246.400000,368,245.600000,366.400000,245.600000C364.800000,244.800000,364,244,363.200000,243.200000C362.400000,242.400000,361.600000,240.800000,361.600000,238.400000L361.600000,237.600000L361.600000,236.800000C362.400000,231.200000,363.200000,225.600000,365.600000,220C367.200000,214.400000,369.600000,208.800000,372.800000,202.400000C376,196,378.400000,190.400000,382.400000,184.800000C385.600000,178.400000,389.600000,172.800000,393.600000,166.400000C390.400000,165.600000,388,165.600000,386.400000,164.800000C384.800000,164,383.200000,164,381.600000,163.200000C380,162.400000,379.200000,162.400000,377.600000,162.400000C376,162.400000,375.200000,162.400000,373.600000,162.400000C372,162.400000,370.400000,162.400000,368.800000,162.400000C367.200000,162.400000,366.400000,162.400000,365.600000,163.200000C364.800000,164,364,164,363.200000,164.800000C362.400000,165.600000,361.600000,166.400000,360.800000,168C359.200000,171.200000,357.600000,172.800000,356.800000,174.400000C356,176,354.400000,176.800000,353.600000,176.800000C352.800000,176.800000,352,176.800000,351.200000,176C350.400000,175.200000,350.400000,174.400000,350.400000,172.800000C350.400000,172,350.400000,171.200000,350.400000,171.200000C350.400000,170.400000,350.400000,169.600000,350.400000,168.800000C351.200000,163.200000,352,159.200000,353.600000,156C355.200000,152.800000,356.800000,150.400000,358.400000,148C360,146.400000,362.400000,144.800000,364.800000,144C367.200000,143.200000,368.800000,142.400000,371.200000,142.400000C373.600000,142.400000,376,142.400000,377.600000,143.200000C380,144,382.400000,144,384,144.800000C386.400000,145.600000,388.800000,146.400000,391.200000,146.400000C393.600000,147.200000,396,147.200000,398.400000,147.200000C400,147.200000,400.800000,147.200000,401.600000,147.200000C402.400000,147.200000,403.200000,147.200000,404,147.200000C406.400000,147.200000,408,147.200000,409.600000,146.400000C411.200000,146.400000,412,146.400000,412.800000,145.600000C413.600000,145.600000,414.400000,145.600000,414.400000,144.800000C414.400000,144,415.200000,144.800000,415.200000,144.800000C417.600000,144.800000,419.200000,145.600000,420,146.400000C420.800000,148,421.600000,149.600000,421.600000,152C421.600000,153.600000,421.600000,155.200000,421.600000,157.600000C421.600000,157.600000,420.800000,158.400000,420,159.200000C419.200000,160,418.400000,160.800000,416.800000,161.600000C416,162.400000,414.400000,163.200000,413.600000,164C412.800000,164.800000,411.200000,165.600000,411.200000,165.600000C408,171.200000,404.800000,176.800000,402.400000,182.400000C400,188,397.600000,193.600000,396,199.200000C394.400000,204.800000,392.800000,211.200000,391.200000,216.800000C389.600000,223.200000,388,229.600000,386.400000,236.800000C386.400000,238.400000,385.600000,240,384,240.800000C383.200000,241.600000,381.600000,242.400000,380,243.200000C378.400000,244,376.800000,244,375.200000,244.800000C376,245.600000,374.400000,246.400000,372.800000,246.400000Z"
    fill="rgb(237,110,15)"
    stroke="none"
    stroke-width="1"
    />
    <path
    id="slot-machine-path16"
    d="M386.400000,175.200000C384.800000,178.400000,382.400000,180.800000,380.800000,184C377.600000,190.400000,374.400000,196,371.200000,201.600000C368,207.200000,366.400000,213.600000,364,219.200000C362.400000,224.800000,360.800000,230.400000,360,236L360,236.800000L360,237.600000C360,240,360.800000,241.600000,361.600000,242.400000C362.400000,243.200000,364,244.800000,364.800000,244.800000C366.400000,245.600000,367.200000,245.600000,368.800000,245.600000C370.400000,245.600000,371.200000,245.600000,371.200000,245.600000C372.800000,245.600000,373.600000,245.600000,375.200000,244.800000C376.800000,244.800000,378.400000,244,380,243.200000C381.600000,242.400000,382.400000,241.600000,384,240.800000C384.800000,240,385.600000,238.400000,386.400000,236.800000C388,229.600000,389.600000,223.200000,391.200000,216.800000C392.800000,210.400000,394.400000,204.800000,396,199.200000C397.600000,193.600000,400,188,402.400000,182.400000C404.800000,176.800000,408,171.200000,411.200000,165.600000L412,164.800000L386.400000,175.200000Z"
    fill="rgb(198,82,2)"
    stroke="none"
    stroke-width="1"
    />
    <g id="slot-machine-g3">
    <ellipse
        id="slot-machine-ellipse1"
        rx="8.800000"
        ry="37.600000"
        transform="matrix(-0.43280000000000 -0.90150000000000 0.90150000000000 -0.43280000000000 145.52014170000001 32.88532490000003)"
        fill="rgb(0,154,175)"
        stroke="none"
        stroke-width="1"
    />
    </g>
    <rect
    id="slot-machine-rect2"
    width="32"
    height="64"
    rx="0"
    ry="0"
    transform="matrix(1 0 0 1 232 424)"
    fill="rgb(76,82,84)"
    stroke="none"
    stroke-width="1"
    />
    <polyline
    id="slot-machine-polyline2"
    points="232,424 264,424 264,480"
    fill="rgb(32,45,42)"
    stroke="none"
    stroke-width="1"
    />
    <g id="slot-machine-animation" transform="translate(246.800018,367)">
    <g id="slot-machine-g4" class="buttonSpin" transform="translate(-246.800018,-384.800003)">
        <circle
        id="slot-machine-circle1"
        r="64.800000"
        transform="matrix(1 0 0 1 246.79999847500000 384.79999999999995)"
        fill="rgb(234,31,10)"
        stroke="none"
        stroke-width="1"
        />
        <ellipse
        id="slot-machine-ellipse2"
        rx="11.200000"
        ry="23.200000"
        transform="matrix(-0.70730000000000 -0.70690000000000 0.70690000000000 -0.70730000000000 216.95222547499998 348.13390800000025)"
        fill="rgb(239,104,63)"
        stroke="none"
        stroke-width="1"
        />
        <path
        id="slot-machine-path17"
        d="M293.600000,300.800000C319.200000,326.400000,319.200000,367.200000,293.600000,392C268,417.600000,227.200000,417.600000,202.400000,392"
        transform="matrix(1 0 0 1 -1.20000152500000 38.39999999999998)"
        fill="rgb(170,32,17)"
        stroke="none"
        stroke-width="1"
        />
    </g>
    </g>
    <g id="slot-machine-g5">
    <circle
        id="slot-machine-circle2"
        r="12.800000"
        transform="matrix(1 0 0 1 50.40000000000000 362.39999999999998)"
        fill="rgb(0,104,132)"
        stroke="none"
        stroke-width="1"
    />
    <circle
        id="slot-machine-circle3"
        r="12.800000"
        transform="matrix(1 0 0 1 50.40000000000000 407.19999999999999)"
        fill="rgb(0,104,132)"
        stroke="none"
        stroke-width="1"
    />
    <circle
        id="slot-machine-circle4"
        r="12.800000"
        transform="matrix(1 0 0 1 50.40000000000000 452)"
        fill="rgb(0,104,132)"
        stroke="none"
        stroke-width="1"
    />
    </g>
    <g id="slot-machine-g6">
    <circle
        id="slot-machine-circle5"
        r="12.800000"
        transform="matrix(1 0 0 1 445.60000000000002 362.39999999999998)"
        fill="rgb(0,154,175)"
        stroke="none"
        stroke-width="1"
    />
    <circle
        id="slot-machine-circle6"
        r="12.800000"
        transform="matrix(1 0 0 1 445.60000000000002 407.19999999999999)"
        fill="rgb(0,154,175)"
        stroke="none"
        stroke-width="1"
    />
    <circle
        id="slot-machine-circle7"
        r="12.800000"
        transform="matrix(1 0 0 1 445.60000000000002 452)"
        fill="rgb(0,154,175)"
        stroke="none"
        stroke-width="1"
    />
    </g>
    <path
    id="slot-machine-path18"
    d="M456,257.066667C456,267.333333,452,272,444,272L52,272C44,272,40,267.333333,40,257.066667L40,125.466667C40,114.266667,44,104,52,104L444,104C452.800000,104,456,114.266667,456,125.466667L456,257.066667Z"
    fill="rgb(244,242,228)"
    stroke="none"
    stroke-width="1"
    />
</svg>